<?xml version="1.0" encoding="UTF-8" standalone="no"?>
<!-- Created with Inkscape (http://www.inkscape.org/) -->

<svg
   version="1.1"
   id="svg1"
   width="448.34668"
   height="447.17599"
   viewBox="0 0 448.34668 447.17599"
   xmlns="http://www.w3.org/2000/svg"
   xmlns:svg="http://www.w3.org/2000/svg">
  <defs
     id="defs1" />
  <g
     id="g1">
    <path
       id="path1"
       d="m 0,182.48257 c 57.74367,0 83.99036,-42.52021 141.73404,-42.52021 35.51233,0 93.69403,29.48988 70.86702,56.69362 -25.11102,25.11102 -58.7209,-23.3228 -70.86702,-56.69362 C 121.95477,85.6199 118.12276,33.95265 63.7803,14.17339 c -31.1634,-11.34267 -85.0404,-33.16323 -85.0404,0 0,33.16323 53.877,11.34266 85.0404,0 44.42423,-16.16927 72.0652,-21.26008 119.34026,-21.26008 l 92.48138,4.25185"
       style="fill:none;stroke:#998acc;stroke-width:8.50403;stroke-linecap:round;stroke-linejoin:round;stroke-miterlimit:10;stroke-dasharray:none;stroke-opacity:1"
       transform="matrix(1.3333333,0,0,-1.3333333,34.016,301.35467)" />
    <path
       id="path2"
       d="m 306.49986,99.21382 c -36.065,0 -56.41636,0 -92.48136,0 L 183.12056,-7.08669 c -9.79399,-36.55166 -7.786,-85.55622 29.4805,-92.12713 33.47046,-5.90157 53.34164,-0.2323 86.8121,5.66928"
       style="fill:none;stroke:#998acc;stroke-width:8.50403;stroke-linecap:round;stroke-linejoin:round;stroke-miterlimit:10;stroke-dasharray:none;stroke-opacity:1"
       transform="matrix(1.3333333,0,0,-1.3333333,34.016,301.35467)" />
  </g>
</svg>
