<?xml version="1.0" encoding="UTF-8" standalone="no"?>
<!-- Created with Inkscape (http://www.inkscape.org/) -->

<svg
   version="1.1"
   id="svg2"
   xml:space="preserve"
   width="453.54266"
   height="422.952"
   viewBox="0 0 453.54266 422.952"
   xmlns="http://www.w3.org/2000/svg"
   xmlns:svg="http://www.w3.org/2000/svg"><defs
     id="defs6" /><g
     id="g8"
     transform="matrix(1.3333333,0,0,-1.3333333,0,422.952)"><g
       id="g10"
       transform="translate(28.346,86.591)"><g
         id="g12"><g
           id="g14" /><g
           id="g16" /><g
           id="g18" /><g
           id="g20"><g
             id="g22"><path
               d="m 0,184.25424 c 57.74367,0 83.99036,-42.5202 141.73404,-42.5202 35.51233,0 93.69403,29.48988 70.86702,56.69362"
               style="fill:none;stroke:#000000;stroke-width:14.1734;stroke-linecap:round;stroke-linejoin:miter;stroke-miterlimit:10;stroke-dasharray:none;stroke-opacity:1"
               id="path24" /></g><g
             id="g26"><path
               d="m 212.60106,198.42766 c -25.11102,25.11102 -58.7209,-23.3228 -70.86702,-56.69362 C 121.76776,86.87778 118.63657,34.13966 63.7803,14.17339 c -31.1634,-11.34267 -85.0404,-33.16323 -85.0404,0 0,33.16323 53.877,11.34266 85.0404,0 44.42423,-16.16927 72.0652,-21.26008 119.34026,-21.26008 l 90.7097,4.25185"
               style="fill:none;stroke:#000000;stroke-width:14.1734;stroke-linecap:round;stroke-linejoin:miter;stroke-miterlimit:10;stroke-dasharray:none;stroke-opacity:1"
               id="path28" /></g><g
             id="g30"><path
               d="m 304.7282,99.21382 c -35.37415,0 -55.33556,0 -90.7097,0"
               style="fill:none;stroke:#000000;stroke-width:14.1734;stroke-linecap:round;stroke-linejoin:miter;stroke-miterlimit:10;stroke-dasharray:none;stroke-opacity:1"
               id="path32" /></g><g
             id="g34"><path
               d="M 214.0185,99.21382 183.12056,-7.08669"
               style="fill:none;stroke:#000000;stroke-width:14.1734;stroke-linecap:round;stroke-linejoin:miter;stroke-miterlimit:10;stroke-dasharray:none;stroke-opacity:1"
               id="path36" /></g><g
             id="g38"><path
               d="m 183.12056,-7.08669 c -7.35304,-27.44194 1.50188,-61.68193 29.4805,-66.61517 32.91592,-5.8038 52.1245,2.70033 85.04044,8.50412"
               style="fill:none;stroke:#000000;stroke-width:14.1734;stroke-linecap:round;stroke-linejoin:miter;stroke-miterlimit:10;stroke-dasharray:none;stroke-opacity:1"
               id="path40" /></g></g><g
           id="g42" /><g
           id="g44" /></g></g></g></svg>
