<?xml version="1.0" encoding="UTF-8" standalone="no"?>
<!-- Created with Inkscape (http://www.inkscape.org/) -->

<svg
   version="1.1"
   id="svg2"
   xml:space="preserve"
   width="455.90533"
   height="454.73468"
   viewBox="0 0 455.90533 454.73468"
   xmlns="http://www.w3.org/2000/svg"
   xmlns:svg="http://www.w3.org/2000/svg"><defs
     id="defs6" /><g
     id="g8"
     transform="matrix(1.3333333,0,0,-1.3333333,0,454.73467)"><g
       id="g10"
       transform="translate(28.346,112.201)"><g
         id="g12"><g
           id="g14" /><g
           id="g16" /><g
           id="g18" /><g
           id="g20"><g
             id="g22"><path
               d="m 0,182.48257 c 57.74367,0 83.99036,-42.52021 141.73404,-42.52021 35.51233,0 93.69403,29.48988 70.86702,56.69362 -25.11102,25.11102 -58.7209,-23.3228 -70.86702,-56.69362 C 121.95477,85.6199 118.12276,33.95265 63.7803,14.17339 c -31.1634,-11.34267 -85.0404,-33.16323 -85.0404,0 0,33.16323 53.877,11.34266 85.0404,0 44.42423,-16.16927 72.0652,-21.26008 119.34026,-21.26008 l 92.48138,4.25185"
               style="fill:none;stroke:#000000;stroke-width:14.1734;stroke-linecap:round;stroke-linejoin:round;stroke-miterlimit:10;stroke-dasharray:none;stroke-opacity:1"
               id="path24" /></g><g
             id="g26"><path
               d="m 306.49986,99.21382 c -36.065,0 -56.41636,0 -92.48136,0 L 183.12056,-7.08669 c -9.79399,-36.55166 -7.786,-85.55622 29.4805,-92.12713 33.47046,-5.90157 53.34164,-0.2323 86.8121,5.66928"
               style="fill:none;stroke:#000000;stroke-width:14.1734;stroke-linecap:round;stroke-linejoin:round;stroke-miterlimit:10;stroke-dasharray:none;stroke-opacity:1"
               id="path28" /></g></g><g
           id="g30" /><g
           id="g32" /></g></g></g></svg>
